<mxfile host="Electron" modified="2023-05-19T11:59:15.493Z" agent="Mozilla/5.0 (Windows NT 10.0; Win64; x64) AppleWebKit/537.36 (KHTML, like Gecko) draw.io/21.2.8 Chrome/112.0.5615.165 Electron/24.2.0 Safari/537.36" etag="QRc2DXvE2or3s_Sq_W-H" version="21.2.8" type="device">
  <diagram name="Page-1" id="42789a77-a242-8287-6e28-9cd8cfd52e62">
    <mxGraphModel dx="1219" dy="772" grid="1" gridSize="10" guides="1" tooltips="1" connect="1" arrows="1" fold="1" page="1" pageScale="1" pageWidth="1100" pageHeight="850" background="none" math="0" shadow="0">
      <root>
        <mxCell id="0" />
        <mxCell id="1" parent="0" />
        <mxCell id="1ea317790d2ca983-8" value="&lt;font style=&quot;font-size: 14px;&quot; face=&quot;Calibri&quot;&gt;&lt;b&gt;S3&lt;/b&gt;&lt;/font&gt;" style="ellipse;whiteSpace=wrap;html=1;rounded=0;shadow=0;comic=0;labelBackgroundColor=none;strokeWidth=1;fontFamily=Verdana;fontSize=12;align=center;fillColor=#ffe6cc;strokeColor=#d79b00;" parent="1" vertex="1">
          <mxGeometry x="460" y="360" width="75" height="50" as="geometry" />
        </mxCell>
        <mxCell id="SS5bU4MkyFG-sna4vpcN-3" value="&lt;font style=&quot;font-size: 14px;&quot; face=&quot;Calibri&quot;&gt;&lt;b&gt;S1&lt;/b&gt;&lt;/font&gt;" style="ellipse;whiteSpace=wrap;html=1;rounded=0;shadow=0;comic=0;labelBackgroundColor=none;strokeWidth=1;fontFamily=Verdana;fontSize=12;align=center;fillColor=#ffe6cc;strokeColor=#d79b00;" parent="1" vertex="1">
          <mxGeometry x="260" y="280" width="75" height="50" as="geometry" />
        </mxCell>
        <mxCell id="SS5bU4MkyFG-sna4vpcN-4" value="&lt;font style=&quot;font-size: 14px;&quot; face=&quot;Calibri&quot;&gt;&lt;b&gt;S2&lt;/b&gt;&lt;/font&gt;" style="ellipse;whiteSpace=wrap;html=1;rounded=0;shadow=0;comic=0;labelBackgroundColor=none;strokeWidth=1;fontFamily=Verdana;fontSize=12;align=center;fillColor=#ffe6cc;strokeColor=#d79b00;" parent="1" vertex="1">
          <mxGeometry x="650" y="280" width="75" height="50" as="geometry" />
        </mxCell>
        <mxCell id="SS5bU4MkyFG-sna4vpcN-5" value="&lt;font style=&quot;font-size: 14px;&quot; face=&quot;Calibri&quot;&gt;&lt;b&gt;S4&lt;/b&gt;&lt;/font&gt;" style="ellipse;whiteSpace=wrap;html=1;rounded=0;shadow=0;comic=0;labelBackgroundColor=none;strokeWidth=1;fontFamily=Verdana;fontSize=12;align=center;fillColor=#ffe6cc;strokeColor=#d79b00;" parent="1" vertex="1">
          <mxGeometry x="260" y="450" width="75" height="50" as="geometry" />
        </mxCell>
        <mxCell id="SS5bU4MkyFG-sna4vpcN-6" value="&lt;font style=&quot;font-size: 14px;&quot; face=&quot;Calibri&quot;&gt;&lt;b&gt;S5&lt;/b&gt;&lt;/font&gt;" style="ellipse;whiteSpace=wrap;html=1;rounded=0;shadow=0;comic=0;labelBackgroundColor=none;strokeWidth=1;fontFamily=Verdana;fontSize=12;align=center;fillColor=#ffe6cc;strokeColor=#d79b00;" parent="1" vertex="1">
          <mxGeometry x="650" y="460" width="75" height="50" as="geometry" />
        </mxCell>
        <mxCell id="SS5bU4MkyFG-sna4vpcN-8" value="&lt;span&gt;E1 AFTER 5 SEC&lt;/span&gt;" style="curved=1;endArrow=classic;html=1;rounded=0;exitX=1;exitY=0.5;exitDx=0;exitDy=0;entryX=0;entryY=0.5;entryDx=0;entryDy=0;fontFamily=Helvetica;fontStyle=1" parent="1" source="SS5bU4MkyFG-sna4vpcN-3" target="SS5bU4MkyFG-sna4vpcN-4" edge="1">
          <mxGeometry width="50" height="50" relative="1" as="geometry">
            <mxPoint x="490" y="420" as="sourcePoint" />
            <mxPoint x="540" y="370" as="targetPoint" />
            <Array as="points">
              <mxPoint x="430" y="320" />
              <mxPoint x="540" y="320" />
            </Array>
          </mxGeometry>
        </mxCell>
        <mxCell id="SS5bU4MkyFG-sna4vpcN-9" value="E2" style="curved=1;endArrow=classic;html=1;rounded=0;exitX=0;exitY=0;exitDx=0;exitDy=0;entryX=1;entryY=0;entryDx=0;entryDy=0;fontStyle=1" parent="1" source="SS5bU4MkyFG-sna4vpcN-4" target="SS5bU4MkyFG-sna4vpcN-3" edge="1">
          <mxGeometry width="50" height="50" relative="1" as="geometry">
            <mxPoint x="490" y="420" as="sourcePoint" />
            <mxPoint x="540" y="370" as="targetPoint" />
            <Array as="points">
              <mxPoint x="610" y="270" />
              <mxPoint x="410" y="260" />
            </Array>
          </mxGeometry>
        </mxCell>
        <mxCell id="SS5bU4MkyFG-sna4vpcN-10" value="E2" style="curved=1;endArrow=classic;html=1;rounded=0;exitX=0;exitY=1;exitDx=0;exitDy=0;entryX=0.039;entryY=0.329;entryDx=0;entryDy=0;entryPerimeter=0;fontStyle=1" parent="1" source="SS5bU4MkyFG-sna4vpcN-3" target="SS5bU4MkyFG-sna4vpcN-3" edge="1">
          <mxGeometry width="50" height="50" relative="1" as="geometry">
            <mxPoint x="200" y="260" as="sourcePoint" />
            <mxPoint x="250" y="210" as="targetPoint" />
            <Array as="points">
              <mxPoint x="210" y="320" />
              <mxPoint x="220" y="300" />
            </Array>
          </mxGeometry>
        </mxCell>
        <mxCell id="SS5bU4MkyFG-sna4vpcN-11" value="E1 OR E2" style="curved=1;endArrow=classic;html=1;rounded=0;exitX=0.5;exitY=0;exitDx=0;exitDy=0;entryX=0.5;entryY=1;entryDx=0;entryDy=0;fontStyle=1" parent="1" source="SS5bU4MkyFG-sna4vpcN-5" target="SS5bU4MkyFG-sna4vpcN-3" edge="1">
          <mxGeometry width="50" height="50" relative="1" as="geometry">
            <mxPoint x="290" y="425" as="sourcePoint" />
            <mxPoint x="340" y="375" as="targetPoint" />
            <Array as="points">
              <mxPoint x="320" y="375" />
            </Array>
          </mxGeometry>
        </mxCell>
        <mxCell id="SS5bU4MkyFG-sna4vpcN-12" value="E3" style="curved=1;endArrow=classic;html=1;rounded=0;exitX=0.267;exitY=0.98;exitDx=0;exitDy=0;exitPerimeter=0;entryX=0;entryY=0;entryDx=0;entryDy=0;fontStyle=1" parent="1" source="SS5bU4MkyFG-sna4vpcN-3" target="SS5bU4MkyFG-sna4vpcN-5" edge="1">
          <mxGeometry width="50" height="50" relative="1" as="geometry">
            <mxPoint x="130" y="430" as="sourcePoint" />
            <mxPoint x="180" y="380" as="targetPoint" />
            <Array as="points">
              <mxPoint x="260" y="370" />
              <mxPoint x="250" y="410" />
            </Array>
          </mxGeometry>
        </mxCell>
        <mxCell id="SS5bU4MkyFG-sna4vpcN-13" value="E3" style="curved=1;endArrow=classic;html=1;rounded=0;entryX=0;entryY=0.5;entryDx=0;entryDy=0;exitX=0;exitY=1;exitDx=0;exitDy=0;fontStyle=1" parent="1" source="SS5bU4MkyFG-sna4vpcN-5" target="SS5bU4MkyFG-sna4vpcN-5" edge="1">
          <mxGeometry width="50" height="50" relative="1" as="geometry">
            <mxPoint x="170" y="530" as="sourcePoint" />
            <mxPoint x="220" y="480" as="targetPoint" />
            <Array as="points">
              <mxPoint x="220" y="500" />
              <mxPoint x="210" y="475" />
            </Array>
          </mxGeometry>
        </mxCell>
        <mxCell id="SS5bU4MkyFG-sna4vpcN-14" value="E1 OR E2" style="curved=1;endArrow=classic;html=1;rounded=0;exitX=0;exitY=0;exitDx=0;exitDy=0;entryX=1;entryY=1;entryDx=0;entryDy=0;fontStyle=1" parent="1" source="1ea317790d2ca983-8" target="SS5bU4MkyFG-sna4vpcN-3" edge="1">
          <mxGeometry width="50" height="50" relative="1" as="geometry">
            <mxPoint x="380" y="360" as="sourcePoint" />
            <mxPoint x="430" y="310" as="targetPoint" />
            <Array as="points">
              <mxPoint x="380" y="350" />
            </Array>
          </mxGeometry>
        </mxCell>
        <mxCell id="SS5bU4MkyFG-sna4vpcN-15" value="E3" style="curved=1;endArrow=classic;html=1;rounded=0;exitX=0;exitY=0.64;exitDx=0;exitDy=0;exitPerimeter=0;entryX=1;entryY=0;entryDx=0;entryDy=0;fontStyle=1" parent="1" source="1ea317790d2ca983-8" target="SS5bU4MkyFG-sna4vpcN-5" edge="1">
          <mxGeometry width="50" height="50" relative="1" as="geometry">
            <mxPoint x="360" y="500" as="sourcePoint" />
            <mxPoint x="410" y="450" as="targetPoint" />
            <Array as="points">
              <mxPoint x="380" y="410" />
            </Array>
          </mxGeometry>
        </mxCell>
        <mxCell id="SS5bU4MkyFG-sna4vpcN-16" value="E4" style="curved=1;endArrow=classic;html=1;rounded=0;exitX=1;exitY=0.5;exitDx=0;exitDy=0;entryX=0.299;entryY=0.046;entryDx=0;entryDy=0;entryPerimeter=0;fontStyle=1" parent="1" source="1ea317790d2ca983-8" target="SS5bU4MkyFG-sna4vpcN-6" edge="1">
          <mxGeometry x="0.501" y="-6" width="50" height="50" relative="1" as="geometry">
            <mxPoint x="590" y="390" as="sourcePoint" />
            <mxPoint x="640" y="340" as="targetPoint" />
            <Array as="points">
              <mxPoint x="580" y="385" />
              <mxPoint x="640" y="420" />
            </Array>
            <mxPoint as="offset" />
          </mxGeometry>
        </mxCell>
        <mxCell id="SS5bU4MkyFG-sna4vpcN-17" value="E4" style="curved=1;endArrow=classic;html=1;rounded=0;exitX=0.96;exitY=0.36;exitDx=0;exitDy=0;exitPerimeter=0;entryX=1;entryY=0.7;entryDx=0;entryDy=0;entryPerimeter=0;fontStyle=1" parent="1" source="SS5bU4MkyFG-sna4vpcN-6" target="SS5bU4MkyFG-sna4vpcN-6" edge="1">
          <mxGeometry width="50" height="50" relative="1" as="geometry">
            <mxPoint x="750" y="450" as="sourcePoint" />
            <mxPoint x="800" y="400" as="targetPoint" />
            <Array as="points">
              <mxPoint x="770" y="470" />
              <mxPoint x="780" y="510" />
            </Array>
          </mxGeometry>
        </mxCell>
        <mxCell id="SS5bU4MkyFG-sna4vpcN-18" value="E4" style="curved=1;endArrow=classic;html=1;rounded=0;exitX=0.5;exitY=1;exitDx=0;exitDy=0;entryX=0.5;entryY=0;entryDx=0;entryDy=0;fontStyle=1" parent="1" source="SS5bU4MkyFG-sna4vpcN-4" target="SS5bU4MkyFG-sna4vpcN-6" edge="1">
          <mxGeometry width="50" height="50" relative="1" as="geometry">
            <mxPoint x="750" y="340" as="sourcePoint" />
            <mxPoint x="800" y="290" as="targetPoint" />
            <Array as="points">
              <mxPoint x="690" y="400" />
            </Array>
          </mxGeometry>
        </mxCell>
        <mxCell id="SS5bU4MkyFG-sna4vpcN-19" value="E4" style="curved=1;endArrow=classic;html=1;rounded=0;exitX=0.5;exitY=0;exitDx=0;exitDy=0;entryX=0.76;entryY=0.06;entryDx=0;entryDy=0;entryPerimeter=0;fontStyle=1" parent="1" source="SS5bU4MkyFG-sna4vpcN-3" target="SS5bU4MkyFG-sna4vpcN-6" edge="1">
          <mxGeometry width="50" height="50" relative="1" as="geometry">
            <mxPoint x="320" y="230" as="sourcePoint" />
            <mxPoint x="370" y="180" as="targetPoint" />
            <Array as="points">
              <mxPoint x="330" y="230" />
              <mxPoint x="500" y="200" />
              <mxPoint x="800" y="210" />
            </Array>
          </mxGeometry>
        </mxCell>
        <mxCell id="SS5bU4MkyFG-sna4vpcN-20" value="&lt;span&gt;E1 OR E2&lt;/span&gt;" style="curved=1;endArrow=classic;html=1;rounded=0;exitX=0.933;exitY=0.3;exitDx=0;exitDy=0;exitPerimeter=0;entryX=0;entryY=0;entryDx=0;entryDy=0;fontStyle=1" parent="1" source="SS5bU4MkyFG-sna4vpcN-6" target="SS5bU4MkyFG-sna4vpcN-3" edge="1">
          <mxGeometry x="0.1182" y="2" width="50" height="50" relative="1" as="geometry">
            <mxPoint x="750" y="450" as="sourcePoint" />
            <mxPoint x="800" y="400" as="targetPoint" />
            <Array as="points">
              <mxPoint x="770" y="370" />
              <mxPoint x="770" y="170" />
              <mxPoint x="300" y="190" />
            </Array>
            <mxPoint as="offset" />
          </mxGeometry>
        </mxCell>
        <mxCell id="SS5bU4MkyFG-sna4vpcN-21" value="E4" style="curved=1;endArrow=classic;html=1;rounded=0;exitX=1;exitY=0.5;exitDx=0;exitDy=0;entryX=0;entryY=0;entryDx=0;entryDy=0;fontStyle=1" parent="1" source="SS5bU4MkyFG-sna4vpcN-5" target="SS5bU4MkyFG-sna4vpcN-6" edge="1">
          <mxGeometry width="50" height="50" relative="1" as="geometry">
            <mxPoint x="490" y="460" as="sourcePoint" />
            <mxPoint x="540" y="410" as="targetPoint" />
            <Array as="points">
              <mxPoint x="540" y="450" />
            </Array>
          </mxGeometry>
        </mxCell>
        <mxCell id="SS5bU4MkyFG-sna4vpcN-22" value="E3" style="curved=1;endArrow=classic;html=1;rounded=0;entryX=1;entryY=1;entryDx=0;entryDy=0;fontStyle=1" parent="1" source="SS5bU4MkyFG-sna4vpcN-6" target="SS5bU4MkyFG-sna4vpcN-5" edge="1">
          <mxGeometry x="-0.0152" width="50" height="50" relative="1" as="geometry">
            <mxPoint x="380" y="540" as="sourcePoint" />
            <mxPoint x="430" y="490" as="targetPoint" />
            <Array as="points">
              <mxPoint x="540" y="510" />
              <mxPoint x="400" y="510" />
            </Array>
            <mxPoint as="offset" />
          </mxGeometry>
        </mxCell>
        <mxCell id="SS5bU4MkyFG-sna4vpcN-23" value="E3" style="curved=1;endArrow=classic;html=1;rounded=0;exitX=0;exitY=1;exitDx=0;exitDy=0;entryX=0.96;entryY=0.36;entryDx=0;entryDy=0;entryPerimeter=0;fontStyle=1" parent="1" source="SS5bU4MkyFG-sna4vpcN-4" target="SS5bU4MkyFG-sna4vpcN-5" edge="1">
          <mxGeometry width="50" height="50" relative="1" as="geometry">
            <mxPoint x="550" y="370" as="sourcePoint" />
            <mxPoint x="600" y="320" as="targetPoint" />
            <Array as="points">
              <mxPoint x="620" y="380" />
              <mxPoint x="510" y="440" />
            </Array>
          </mxGeometry>
        </mxCell>
        <mxCell id="SS5bU4MkyFG-sna4vpcN-24" value="E1" style="curved=1;endArrow=classic;html=1;rounded=0;exitX=0.267;exitY=0.04;exitDx=0;exitDy=0;exitPerimeter=0;entryX=0.6;entryY=0.02;entryDx=0;entryDy=0;entryPerimeter=0;fontStyle=1" parent="1" source="SS5bU4MkyFG-sna4vpcN-4" target="SS5bU4MkyFG-sna4vpcN-4" edge="1">
          <mxGeometry x="-0.6055" width="50" height="50" relative="1" as="geometry">
            <mxPoint x="630" y="260" as="sourcePoint" />
            <mxPoint x="680" y="210" as="targetPoint" />
            <Array as="points">
              <mxPoint x="670" y="250" />
              <mxPoint x="690" y="230" />
            </Array>
            <mxPoint as="offset" />
          </mxGeometry>
        </mxCell>
        <mxCell id="SS5bU4MkyFG-sna4vpcN-52" value="" style="group" parent="1" vertex="1" connectable="0">
          <mxGeometry x="920" y="110" width="250" height="250" as="geometry" />
        </mxCell>
        <mxCell id="SS5bU4MkyFG-sna4vpcN-51" value="" style="rounded=0;whiteSpace=wrap;html=1;fillColor=#dae8fc;strokeColor=#6c8ebf;" parent="SS5bU4MkyFG-sna4vpcN-52" vertex="1">
          <mxGeometry x="20" y="10" width="220" height="240" as="geometry" />
        </mxCell>
        <mxCell id="SS5bU4MkyFG-sna4vpcN-39" value="&lt;font style=&quot;font-size: 14px;&quot; color=&quot;#1f1f1f&quot; face=&quot;Calibri&quot;&gt;&lt;b&gt;STATES&lt;/b&gt;&lt;/font&gt;" style="rounded=1;whiteSpace=wrap;html=1;fillColor=#ffe6cc;strokeColor=#d79b00;" parent="SS5bU4MkyFG-sna4vpcN-52" vertex="1">
          <mxGeometry x="30" y="19.23" width="200" height="28.85" as="geometry" />
        </mxCell>
        <mxCell id="SS5bU4MkyFG-sna4vpcN-40" value="&lt;font face=&quot;Calibri&quot;&gt;&lt;b&gt;S1&lt;/b&gt;&lt;/font&gt;" style="rounded=1;whiteSpace=wrap;html=1;fillColor=#f5f5f5;strokeColor=#666666;fontColor=#333333;" parent="SS5bU4MkyFG-sna4vpcN-52" vertex="1">
          <mxGeometry x="30" y="57.69230769230769" width="40" height="28.846153846153847" as="geometry" />
        </mxCell>
        <mxCell id="SS5bU4MkyFG-sna4vpcN-47" value="&lt;font face=&quot;Calibri&quot;&gt;&lt;b&gt;CAR MOVE WITH 50%&lt;/b&gt;&lt;/font&gt;" style="rounded=1;whiteSpace=wrap;html=1;fillColor=#f5f5f5;fontColor=#333333;strokeColor=#666666;" parent="SS5bU4MkyFG-sna4vpcN-52" vertex="1">
          <mxGeometry x="80" y="96.15384615384616" width="150" height="28.846153846153847" as="geometry" />
        </mxCell>
        <mxCell id="SS5bU4MkyFG-sna4vpcN-48" value="&lt;font face=&quot;Calibri&quot;&gt;&lt;b&gt;STOP&lt;/b&gt;&lt;/font&gt;" style="rounded=1;whiteSpace=wrap;html=1;fillColor=#f5f5f5;fontColor=#333333;strokeColor=#666666;" parent="SS5bU4MkyFG-sna4vpcN-52" vertex="1">
          <mxGeometry x="80" y="134.6153846153846" width="150" height="28.846153846153847" as="geometry" />
        </mxCell>
        <mxCell id="SS5bU4MkyFG-sna4vpcN-49" value="&lt;font face=&quot;Calibri&quot;&gt;&lt;b&gt;STOP &amp;amp; ROTATE 90*&lt;/b&gt;&lt;/font&gt;" style="rounded=1;whiteSpace=wrap;html=1;fillColor=#f5f5f5;fontColor=#333333;strokeColor=#666666;" parent="SS5bU4MkyFG-sna4vpcN-52" vertex="1">
          <mxGeometry x="80" y="173.0769230769231" width="150" height="28.846153846153847" as="geometry" />
        </mxCell>
        <mxCell id="SS5bU4MkyFG-sna4vpcN-50" value="&lt;font face=&quot;Calibri&quot;&gt;&lt;b&gt;MOVE BACKWORD 30%&lt;/b&gt;&lt;/font&gt;" style="rounded=1;whiteSpace=wrap;html=1;fillColor=#f5f5f5;fontColor=#333333;strokeColor=#666666;" parent="SS5bU4MkyFG-sna4vpcN-52" vertex="1">
          <mxGeometry x="80" y="211.53846153846155" width="150" height="28.846153846153847" as="geometry" />
        </mxCell>
        <mxCell id="SS5bU4MkyFG-sna4vpcN-45" value="&lt;font face=&quot;Calibri&quot;&gt;&lt;b&gt;CAR MOVE WITH 30%&lt;/b&gt;&lt;/font&gt;" style="rounded=1;whiteSpace=wrap;html=1;fillColor=#f5f5f5;fontColor=#333333;strokeColor=#666666;" parent="SS5bU4MkyFG-sna4vpcN-52" vertex="1">
          <mxGeometry x="80" y="57.69230769230769" width="150" height="28.846153846153847" as="geometry" />
        </mxCell>
        <mxCell id="iEmgJKEY9KBnieTD2avm-30" value="&lt;font face=&quot;Calibri&quot;&gt;&lt;b&gt;S2&lt;/b&gt;&lt;/font&gt;" style="rounded=1;whiteSpace=wrap;html=1;fillColor=#f5f5f5;fontColor=#333333;strokeColor=#666666;" vertex="1" parent="SS5bU4MkyFG-sna4vpcN-52">
          <mxGeometry x="30" y="96.15384615384616" width="40" height="28.846153846153847" as="geometry" />
        </mxCell>
        <mxCell id="iEmgJKEY9KBnieTD2avm-33" value="&lt;font face=&quot;Calibri&quot;&gt;&lt;b&gt;S5&lt;/b&gt;&lt;/font&gt;" style="rounded=1;whiteSpace=wrap;html=1;fillColor=#f5f5f5;fontColor=#333333;strokeColor=#666666;" vertex="1" parent="SS5bU4MkyFG-sna4vpcN-52">
          <mxGeometry x="30" y="211.53846153846155" width="40" height="28.846153846153847" as="geometry" />
        </mxCell>
        <mxCell id="iEmgJKEY9KBnieTD2avm-32" value="&lt;font face=&quot;Calibri&quot;&gt;&lt;b&gt;S4&lt;/b&gt;&lt;/font&gt;" style="rounded=1;whiteSpace=wrap;html=1;fillColor=#f5f5f5;fontColor=#333333;strokeColor=#666666;" vertex="1" parent="SS5bU4MkyFG-sna4vpcN-52">
          <mxGeometry x="30" y="173.0769230769231" width="40" height="28.846153846153847" as="geometry" />
        </mxCell>
        <mxCell id="iEmgJKEY9KBnieTD2avm-31" value="&lt;font face=&quot;Calibri&quot;&gt;&lt;b&gt;S3&lt;/b&gt;&lt;/font&gt;" style="rounded=1;whiteSpace=wrap;html=1;fillColor=#f5f5f5;fontColor=#333333;strokeColor=#666666;" vertex="1" parent="SS5bU4MkyFG-sna4vpcN-52">
          <mxGeometry x="30" y="134.6153846153846" width="40" height="28.846153846153847" as="geometry" />
        </mxCell>
        <mxCell id="SS5bU4MkyFG-sna4vpcN-71" value="" style="group" parent="1" vertex="1" connectable="0">
          <mxGeometry x="1190" y="110" width="280" height="210" as="geometry" />
        </mxCell>
        <mxCell id="SS5bU4MkyFG-sna4vpcN-54" value="" style="rounded=0;whiteSpace=wrap;html=1;fillColor=#dae8fc;strokeColor=#6c8ebf;container=0;" parent="SS5bU4MkyFG-sna4vpcN-71" vertex="1">
          <mxGeometry x="20" y="10" width="220" height="200" as="geometry" />
        </mxCell>
        <mxCell id="SS5bU4MkyFG-sna4vpcN-56" value="&lt;font face=&quot;Calibri&quot;&gt;&lt;b&gt;E1&lt;/b&gt;&lt;/font&gt;" style="rounded=1;whiteSpace=wrap;html=1;container=0;fillColor=#f5f5f5;fontColor=#333333;strokeColor=#666666;" parent="SS5bU4MkyFG-sna4vpcN-71" vertex="1">
          <mxGeometry x="30" y="57.27272727272727" width="40" height="28.636363636363637" as="geometry" />
        </mxCell>
        <mxCell id="SS5bU4MkyFG-sna4vpcN-61" value="&lt;font face=&quot;Calibri&quot;&gt;&lt;b&gt;OBSTACLE AT DISTANCE &amp;gt; 70&lt;/b&gt;&lt;/font&gt;" style="rounded=1;whiteSpace=wrap;html=1;container=0;fillColor=#f5f5f5;fontColor=#333333;strokeColor=#666666;" parent="SS5bU4MkyFG-sna4vpcN-71" vertex="1">
          <mxGeometry x="80" y="57.27272727272727" width="150" height="28.636363636363637" as="geometry" />
        </mxCell>
        <mxCell id="SS5bU4MkyFG-sna4vpcN-67" value="&lt;font face=&quot;Calibri&quot;&gt;&lt;b&gt;OBSTACLE AT 70 &amp;gt; D &amp;gt; 30&lt;/b&gt;&lt;/font&gt;" style="rounded=1;whiteSpace=wrap;html=1;container=0;fillColor=#f5f5f5;fontColor=#333333;strokeColor=#666666;" parent="SS5bU4MkyFG-sna4vpcN-71" vertex="1">
          <mxGeometry x="80" y="95.45454545454545" width="150" height="28.636363636363637" as="geometry" />
        </mxCell>
        <mxCell id="SS5bU4MkyFG-sna4vpcN-69" value="&lt;font face=&quot;Calibri&quot;&gt;&lt;b&gt;OBSTACLE AT 30 &amp;gt; D &amp;gt; 20&lt;/b&gt;&lt;/font&gt;" style="rounded=1;whiteSpace=wrap;html=1;container=0;fillColor=#f5f5f5;fontColor=#333333;strokeColor=#666666;" parent="SS5bU4MkyFG-sna4vpcN-71" vertex="1">
          <mxGeometry x="80" y="133.63636363636365" width="150" height="28.636363636363637" as="geometry" />
        </mxCell>
        <mxCell id="SS5bU4MkyFG-sna4vpcN-70" value="&lt;font face=&quot;Calibri&quot;&gt;&lt;b&gt;OBSTACLE AT 20 &amp;gt; D&lt;/b&gt;&lt;/font&gt;" style="rounded=1;whiteSpace=wrap;html=1;container=0;fillColor=#f5f5f5;fontColor=#333333;strokeColor=#666666;" parent="SS5bU4MkyFG-sna4vpcN-71" vertex="1">
          <mxGeometry x="80" y="171.8181818181818" width="150" height="28.636363636363637" as="geometry" />
        </mxCell>
        <mxCell id="iEmgJKEY9KBnieTD2avm-47" value="&lt;font style=&quot;font-size: 14px;&quot; color=&quot;#1f1f1f&quot; face=&quot;Calibri&quot;&gt;&lt;b&gt;EVENTS&lt;/b&gt;&lt;/font&gt;" style="rounded=1;whiteSpace=wrap;html=1;fillColor=#ffe6cc;strokeColor=#d79b00;" vertex="1" parent="SS5bU4MkyFG-sna4vpcN-71">
          <mxGeometry x="30" y="19.09" width="200" height="28.64" as="geometry" />
        </mxCell>
        <mxCell id="iEmgJKEY9KBnieTD2avm-50" value="&lt;font face=&quot;Calibri&quot;&gt;&lt;b&gt;E4&lt;/b&gt;&lt;/font&gt;" style="rounded=1;whiteSpace=wrap;html=1;container=0;fillColor=#f5f5f5;fontColor=#333333;strokeColor=#666666;" vertex="1" parent="SS5bU4MkyFG-sna4vpcN-71">
          <mxGeometry x="30" y="171.8181818181818" width="40" height="28.636363636363637" as="geometry" />
        </mxCell>
        <mxCell id="iEmgJKEY9KBnieTD2avm-49" value="&lt;font face=&quot;Calibri&quot;&gt;&lt;b&gt;E3&lt;/b&gt;&lt;/font&gt;" style="rounded=1;whiteSpace=wrap;html=1;container=0;fillColor=#f5f5f5;fontColor=#333333;strokeColor=#666666;" vertex="1" parent="SS5bU4MkyFG-sna4vpcN-71">
          <mxGeometry x="30" y="133.63636363636365" width="40" height="28.636363636363637" as="geometry" />
        </mxCell>
        <mxCell id="iEmgJKEY9KBnieTD2avm-48" value="&lt;font face=&quot;Calibri&quot;&gt;&lt;b&gt;E2&lt;/b&gt;&lt;/font&gt;" style="rounded=1;whiteSpace=wrap;html=1;container=0;fillColor=#f5f5f5;fontColor=#333333;strokeColor=#666666;" vertex="1" parent="SS5bU4MkyFG-sna4vpcN-71">
          <mxGeometry x="30" y="95.68454545454546" width="40" height="28.636363636363637" as="geometry" />
        </mxCell>
        <mxCell id="iEmgJKEY9KBnieTD2avm-60" value="&lt;font style=&quot;font-size: 18px;&quot; face=&quot;Calibri&quot;&gt;State Machine Diagram&lt;/font&gt;" style="text;html=1;align=center;verticalAlign=middle;resizable=0;points=[];autosize=1;strokeColor=none;fillColor=none;fontSize=16;" vertex="1" parent="1">
          <mxGeometry x="430" y="100" width="190" height="40" as="geometry" />
        </mxCell>
      </root>
    </mxGraphModel>
  </diagram>
</mxfile>
